# xmcd CD database file
#
# Track frame offsets:
#	150
#	32275
#	57545
#	80870
#	107710
#	135057
#	172170
#	197417
#	232930
#	270615
#
# Disc length: 3997 seconds
#
# Revision: 1
# Processed by: cddbd v1.5.2PL0 Copyright (c) Steve Scherf et al.
# Submitted via: CDex 1.70beta3
#
DISCID=7d0f9b0a
DTITLE=Various Artist - SHADES OF BLUE COMPLETED Disc3
DYEAR=2005
DGENRE=Jazz
TTITLE0=ALLIGATOR BOOGIE - Junko Onishi, Freddie Hubbard with K.C.B. (Us3)
TTITLE1=HUM DRUM BLUES - Holly Cole with Javon Jackson
TTITLE2=RECADO BOSSA NOVA - Gonzalo Rubalcaba Trio
TTITLE3=2300 SKIDOO - Geoff Keezer
TTITLE4=CRISTO REDENTOR - Bobby Watson with Jack Walrath
TTITLE5=INNER URGE - Kevin Hays Trio
TTITLE6=UN POCO LOCO - Jacky Terrasson Trio
TTITLE7=LOVE BUG - Reuben Wilson with Ronnie Cuber
TTITLE8=SIETE OCHO - Bob Belden with Tim Hagans
TTITLE9=MAIDEN VOYAGE - Dianne Reeves with Geri Allen
EXTD=YEAR: 2005
EXTT0=
EXTT1=
EXTT2=
EXTT3=
EXTT4=
EXTT5=
EXTT6=
EXTT7=
EXTT8=
EXTT9=
PLAYORDER=
